# xmcd CD database file generated by LOLA_Freedb v0.9beta0
# 
# Track frame offsets:
#      150
#      12659
#      25421
#      41823
#      51973
#      64967
#      80427
#      97073
#      106040
#      118227
#      130496
#      147727
#      159943
#      173871
#      193469
#      206632
#      223817
#      242215
#      254978
#      271952
# 
# Disc length: 3795 seconds
# 
# Revision: 0 
# Processed by: cddbd v1.5.2PL0 Copyright (c) Steve Scherf et al.
# Submitted via: LOLA_Freedb v0.9beta0
# 
DISCID=490ed114
DTITLE=Suzanne Prentice - The Suzanne Prentice Story
DYEAR=2003
DGENRE=
TTITLE0=Four Strong Winds
TTITLE1=Crazy Arms
TTITLE2=I Honestly Love You
TTITLE3=Blue Eyes Crying In The Rain
TTITLE4=If You Love Me (Let Me Know)
TTITLE5=You Needed Me
TTITLE6=Blanket On The Ground
TTITLE7=The Happiest Girl In The Whole USA
TTITLE8=He Thinks I Still Care
TTITLE9=Morning Has Broken
TTITLE10=It's A Long Way From Sunday School To Broadway
TTITLE11=Don't It Make My Brown Eyes Blue
TTITLE12=One Of These Days
TTITLE13=Back Home Again
TTITLE14=Love Is A Rose
TTITLE15=Let's Keep It That Way
TTITLE16=Queen Of The Silver Dollar
TTITLE17=You Can't Be A Beacon
TTITLE18=The Rose
TTITLE19=Don't Believe My Heart Could Stand Another You
EXTD=Album 2
EXTT0=
EXTT1=
EXTT2=
EXTT3=
EXTT4=
EXTT5=
EXTT6=
EXTT7=
EXTT8=
EXTT9=
EXTT10=
EXTT11=
EXTT12=
EXTT13=
EXTT14=
EXTT15=
EXTT16=
EXTT17=
EXTT18=
EXTT19=
PLAYORDER=
